<svg width="24.000000" height="24.000000" viewBox="0 0 24 24" fill="none" xmlns="http://www.w3.org/2000/svg" xmlns:xlink="http://www.w3.org/1999/xlink">
	<desc>
			Created with Pixso.
	</desc>
	<defs>
		<clipPath id="clip179_74">
			<rect id="clock" width="24.000000" height="24.000000" fill="white" fill-opacity="0"/>
		</clipPath>
	</defs>
	<g clip-path="url(#clip179_74)">
		<path id="path" d="M12 6L12 12L16.5 12M20.31 15.44C19.85 16.54 19.2 17.52 18.36 18.36C17.52 19.2 16.54 19.86 15.44 20.31C14.34 20.77 13.19 21 12 21C10.8 21 9.65 20.77 8.55 20.31C7.45 19.86 6.47 19.2 5.63 18.36C4.79 17.52 4.14 16.54 3.68 15.44C3.22 14.34 2.99 13.19 3 12C3 10.8 3.22 9.65 3.68 8.55C4.14 7.45 4.79 6.48 5.63 5.63C6.48 4.79 7.45 4.14 8.55 3.68C9.65 3.23 10.8 3 12 3C13.19 3 14.34 3.23 15.44 3.68C16.54 4.14 17.51 4.79 18.36 5.63C19.2 6.48 19.85 7.45 20.31 8.55C20.77 9.65 20.99 10.8 21 12C21 13.19 20.77 14.34 20.31 15.44Z" stroke="#E34F8A" stroke-opacity="1.000000" stroke-width="1.500000" stroke-linejoin="round" stroke-linecap="round"/>
	</g>
</svg>
