<svg width="24.000000" height="24.000000" viewBox="0 0 24 24" fill="none" xmlns="http://www.w3.org/2000/svg" xmlns:xlink="http://www.w3.org/1999/xlink">
	<desc>
			Created with Pixso.
	</desc>
	<defs>
		<clipPath id="clip179_76">
			<rect id="mail" width="24.000000" height="24.000000" fill="white" fill-opacity="0"/>
		</clipPath>
	</defs>
	<g clip-path="url(#clip179_76)">
		<path id="path" d="M21.75 17.25C21.75 17.87 21.53 18.4 21.09 18.84C20.65 19.28 20.12 19.5 19.5 19.5L4.5 19.5C3.87 19.5 3.34 19.28 2.9 18.84C2.46 18.4 2.25 17.87 2.25 17.25L2.25 6.75C2.25 6.12 2.46 5.59 2.9 5.15C3.34 4.71 3.87 4.5 4.5 4.5L19.5 4.5C20.12 4.5 20.65 4.71 21.09 5.15C21.53 5.59 21.75 6.12 21.75 6.75L21.75 17.25ZM21.75 6.75L21.75 6.99C21.75 7.83 21.39 8.46 20.68 8.9L13.18 13.52C12.39 14 11.6 14 10.81 13.52L3.31 8.91C2.6 8.47 2.25 7.83 2.25 6.99L2.25 6.75" stroke="#E34F8A" stroke-opacity="1.000000" stroke-width="1.500000" stroke-linejoin="round"/>
	</g>
</svg>
