<svg width="24.000000" height="24.000000" viewBox="0 0 24 24" fill="none" xmlns="http://www.w3.org/2000/svg" xmlns:xlink="http://www.w3.org/1999/xlink">
	<desc>
			Created with Pixso.
	</desc>
	<defs>
		<clipPath id="clip179_68">
			<rect id="icon" width="24.000000" height="24.000000" fill="white" fill-opacity="0"/>
		</clipPath>
	</defs>
	<g clip-path="url(#clip179_68)">
		<path id="path" d="M14.12 12.62C13.53 13.2 12.82 13.5 12 13.5C11.17 13.5 10.46 13.2 9.87 12.62C9.29 12.03 9 11.32 9 10.5C9 9.67 9.29 8.96 9.87 8.37C10.46 7.79 11.17 7.5 12 7.5C12.82 7.5 13.53 7.79 14.12 8.37C14.7 8.96 15 9.67 15 10.5C15 11.32 14.7 12.03 14.12 12.62Z" stroke="#E34F8A" stroke-opacity="1.000000" stroke-width="1.500000" stroke-linejoin="round"/>
		<path id="path" d="M12 21.75C12 21.75 4.5 17.64 4.5 10.5C4.5 9.5 4.69 8.54 5.07 7.62C5.45 6.71 5.99 5.9 6.69 5.19C7.39 4.49 8.21 3.95 9.12 3.57C10.04 3.19 11 3 12 3C12.99 3 13.95 3.19 14.87 3.57C15.78 3.95 16.6 4.49 17.3 5.19C18 5.9 18.54 6.71 18.92 7.62C19.3 8.54 19.5 9.5 19.5 10.5C19.5 17.64 12 21.75 12 21.75Z" stroke="#E34F8A" stroke-opacity="1.000000" stroke-width="1.500000" stroke-linejoin="round"/>
	</g>
</svg>
