<svg width="24.000000" height="24.000000" viewBox="0 0 24 24" fill="none" xmlns="http://www.w3.org/2000/svg" xmlns:xlink="http://www.w3.org/1999/xlink">
	<desc>
			Created with Pixso.
	</desc>
	<defs>
		<clipPath id="clip179_78">
			<rect id="phone" width="24.000000" height="24.000000" fill="white" fill-opacity="0"/>
		</clipPath>
	</defs>
	<g clip-path="url(#clip179_78)">
		<path id="path" d="M8.25 1.5C7.62 1.5 7.09 1.71 6.65 2.15C6.21 2.59 6 3.12 6 3.75L6 20.25C6 20.87 6.21 21.4 6.65 21.84C7.09 22.28 7.62 22.5 8.25 22.5L15.75 22.5C16.37 22.5 16.9 22.28 17.34 21.84C17.78 21.4 18 20.87 18 20.25L18 3.75C18 3.12 17.78 2.59 17.34 2.15C16.9 1.71 16.37 1.5 15.75 1.5L13.5 1.5L10.5 1.5L8.25 1.5ZM10.5 1.5L10.5 3L13.5 3L13.5 1.5M10.5 20.25L13.5 20.25" stroke="#E34F8A" stroke-opacity="1.000000" stroke-width="1.500000" stroke-linejoin="round" stroke-linecap="round"/>
	</g>
</svg>
