<svg width="22.500000" height="22.500000" viewBox="0 0 22.5 22.5" fill="none" xmlns="http://www.w3.org/2000/svg" xmlns:xlink="http://www.w3.org/1999/xlink">
	<desc>
			Created with Pixso.
	</desc>
	<defs/>
	<path id="Vector" d="M0 0.75C0 0.55 0.07 0.36 0.21 0.21C0.36 0.07 0.55 0 0.75 0L3 0C3.16 6.1e-5 3.32 0.05 3.46 0.15C3.59 0.26 3.68 0.4 3.72 0.56L4.33 3L21.75 3C21.86 3 21.96 3.02 22.06 3.07C22.16 3.11 22.25 3.18 22.32 3.27C22.39 3.35 22.44 3.45 22.47 3.56C22.5 3.66 22.5 3.77 22.48 3.88L20.23 15.88C20.2 16.05 20.11 16.21 19.97 16.32C19.84 16.43 19.67 16.49 19.5 16.5L6 16.5C5.82 16.49 5.65 16.43 5.52 16.32C5.38 16.21 5.29 16.05 5.26 15.88L3.01 3.91L2.41 1.5L0.75 1.5C0.55 1.5 0.36 1.42 0.21 1.28C0.07 1.13 0 0.94 0 0.75ZM4.65 4.5L6.62 15L18.87 15L20.84 4.5L4.65 4.5ZM7.5 16.5C6.7 16.5 5.94 16.81 5.37 17.37C4.81 17.94 4.5 18.7 4.5 19.5C4.5 20.29 4.81 21.05 5.37 21.62C5.94 22.18 6.7 22.5 7.5 22.5C8.29 22.5 9.05 22.18 9.62 21.62C10.18 21.05 10.5 20.29 10.5 19.5C10.5 18.7 10.18 17.94 9.62 17.37C9.05 16.81 8.29 16.5 7.5 16.5ZM18 16.5C17.2 16.5 16.44 16.81 15.87 17.37C15.31 17.94 15 18.7 15 19.5C15 20.29 15.31 21.05 15.87 21.62C16.44 22.18 17.2 22.5 18 22.5C18.79 22.5 19.55 22.18 20.12 21.62C20.68 21.05 21 20.29 21 19.5C21 18.7 20.68 17.94 20.12 17.37C19.55 16.81 18.79 16.5 18 16.5ZM7.5 18C7.89 18 8.27 18.15 8.56 18.43C8.84 18.72 9 19.1 9 19.5C9 19.89 8.84 20.27 8.56 20.56C8.27 20.84 7.89 21 7.5 21C7.1 21 6.72 20.84 6.43 20.56C6.15 20.27 6 19.89 6 19.5C6 19.1 6.15 18.72 6.43 18.43C6.72 18.15 7.1 18 7.5 18ZM18 18C18.39 18 18.77 18.15 19.06 18.43C19.34 18.72 19.5 19.1 19.5 19.5C19.5 19.89 19.34 20.27 19.06 20.56C18.77 20.84 18.39 21 18 21C17.6 21 17.22 20.84 16.93 20.56C16.65 20.27 16.5 19.89 16.5 19.5C16.5 19.1 16.65 18.72 16.93 18.43C17.22 18.15 17.6 18 18 18Z" fill="#1E1E1E" fill-opacity="1.000000" fill-rule="nonzero"/>
</svg>
