<svg width="30.000000" height="30.000000" viewBox="0 0 30 30" fill="none" xmlns="http://www.w3.org/2000/svg" xmlns:xlink="http://www.w3.org/1999/xlink">
	<desc>
			Created with Pixso.
	</desc>
	<defs>
		<clipPath id="clip91_29">
			<rect id="icons8-телеграм" width="30.000000" height="30.000000" fill="white" fill-opacity="0"/>
		</clipPath>
	</defs>
	<g clip-path="url(#clip91_29)">
		<path id="path" d="M15 1.19C22.62 1.19 28.8 7.37 28.8 15C28.8 22.62 22.62 28.8 15 28.8C7.37 28.8 1.19 22.62 1.19 15C1.19 7.37 7.37 1.19 15 1.19ZM19.76 20.62C20.01 19.84 21.2 12.08 21.35 10.55C21.39 10.09 21.24 9.78 20.96 9.64C20.61 9.47 20.1 9.56 19.5 9.77C18.68 10.07 8.24 14.5 7.63 14.76C7.06 15 6.52 15.27 6.52 15.65C6.52 15.92 6.68 16.07 7.12 16.23C7.58 16.4 8.74 16.75 9.42 16.94C10.08 17.12 10.83 16.96 11.25 16.7C11.69 16.42 16.83 12.98 17.2 12.68C17.57 12.38 17.86 12.77 17.56 13.07C17.26 13.37 13.73 16.79 13.27 17.27C12.7 17.84 13.11 18.44 13.48 18.68C13.92 18.95 17.03 21.04 17.5 21.37C17.96 21.71 18.44 21.86 18.87 21.86C19.31 21.86 19.54 21.29 19.76 20.62Z" fill="#1E1E1E" fill-opacity="0.750000" fill-rule="nonzero"/>
	</g>
</svg>
