<svg width="22.500000" height="22.500000" viewBox="0 0 22.5 22.5" fill="none" xmlns="http://www.w3.org/2000/svg" xmlns:xlink="http://www.w3.org/1999/xlink">
	<desc>
			Created with Pixso.
	</desc>
	<defs/>
	<path id="Vector" d="M11.25 11.25C12.74 11.25 14.17 10.65 15.22 9.6C16.28 8.54 16.87 7.11 16.87 5.62C16.87 4.13 16.28 2.7 15.22 1.64C14.17 0.59 12.74 0 11.25 0C9.75 0 8.32 0.59 7.27 1.64C6.21 2.7 5.62 4.13 5.62 5.62C5.62 7.11 6.21 8.54 7.27 9.6C8.32 10.65 9.75 11.25 11.25 11.25ZM15 5.62C15 6.61 14.6 7.57 13.9 8.27C13.19 8.97 12.24 9.37 11.25 9.37C10.25 9.37 9.3 8.97 8.59 8.27C7.89 7.57 7.5 6.61 7.5 5.62C7.5 4.63 7.89 3.67 8.59 2.97C9.3 2.27 10.25 1.87 11.25 1.87C12.24 1.87 13.19 2.27 13.9 2.97C14.6 3.67 15 4.63 15 5.62ZM22.5 20.62C22.5 22.5 20.62 22.5 20.62 22.5L1.87 22.5C1.87 22.5 0 22.5 0 20.62C0 18.75 1.87 13.12 11.25 13.12C20.62 13.12 22.5 18.75 22.5 20.62ZM20.62 20.61C20.62 20.15 20.33 18.76 19.06 17.49C17.84 16.27 15.54 15 11.25 15C6.95 15 4.65 16.27 3.43 17.49C2.16 18.76 1.87 20.15 1.87 20.61L20.62 20.61Z" fill="#1E1E1E" fill-opacity="1.000000" fill-rule="nonzero"/>
</svg>
