<svg width="30.000000" height="30.000000" viewBox="0 0 30 30" fill="none" xmlns="http://www.w3.org/2000/svg" xmlns:xlink="http://www.w3.org/1999/xlink">
	<desc>
			Created with Pixso.
	</desc>
	<defs>
		<clipPath id="clip91_31">
			<rect id="icons8-vk" width="30.000000" height="30.000000" fill="white" fill-opacity="0"/>
		</clipPath>
	</defs>
	<g clip-path="url(#clip91_31)">
		<path id="path" d="M24.6 2.39L5.39 2.39C3.74 2.39 2.39 3.74 2.39 5.39L2.39 24.59C2.39 26.25 3.74 27.59 5.39 27.59L24.6 27.59C26.25 27.59 27.6 26.25 27.6 24.59L27.6 5.39C27.6 3.74 26.25 2.39 24.6 2.39ZM22.63 19.79L20.39 19.79C20.39 19.79 20.34 19.79 20.26 19.79C20.08 19.79 19.71 19.75 19.27 19.45C18.49 18.9 17.74 17.54 17.14 17.54C17.1 17.54 17.07 17.55 17.03 17.56C16.51 17.73 16.36 18.24 16.36 18.87C16.36 19.09 16.2 19.2 15.78 19.2L14.62 19.2C13.33 19.2 12.07 19.16 10.66 17.62C8.59 15.35 6.64 11.3 6.64 11.3C6.64 11.3 6.54 11.07 6.65 10.93C6.76 10.81 7.01 10.79 7.1 10.79L9.54 10.79C9.54 10.79 9.76 10.84 9.92 10.96C10.06 11.06 10.14 11.25 10.14 11.25C10.14 11.25 10.54 12.04 11.05 12.93C11.91 14.41 12.37 14.9 12.7 14.9C12.76 14.9 12.81 14.89 12.87 14.86C13.36 14.59 13.21 12.4 13.21 12.4C13.21 12.4 13.22 11.61 12.96 11.26C12.76 10.99 12.39 10.91 12.22 10.88C12.09 10.87 12.3 10.55 12.59 10.41C12.96 10.23 13.58 10.2 14.32 10.2L14.68 10.2C15.39 10.21 15.4 10.28 15.68 10.34C16.51 10.54 16.23 11.32 16.23 13.17C16.23 13.77 16.12 14.6 16.54 14.88C16.57 14.9 16.62 14.91 16.67 14.91C16.95 14.91 17.54 14.56 18.49 12.96C19.02 12.04 19.42 11.14 19.42 11.14C19.42 11.14 19.51 10.98 19.65 10.89C19.78 10.81 19.78 10.81 19.96 10.81C20.15 10.81 22.08 10.79 22.5 10.79C22.9 10.79 23.31 10.8 23.38 11.05C23.47 11.42 23.08 12.08 22.06 13.47C20.37 15.73 20.17 15.56 21.58 16.87C22.92 18.11 23.2 18.72 23.25 18.8C23.8 19.72 22.63 19.79 22.63 19.79Z" fill="#1E1E1E" fill-opacity="0.750000" fill-rule="nonzero"/>
	</g>
</svg>
