<svg width="30.000000" height="30.000000" viewBox="0 0 30 30" fill="none" xmlns="http://www.w3.org/2000/svg" xmlns:xlink="http://www.w3.org/1999/xlink">
	<desc>
			Created with Pixso.
	</desc>
	<defs>
		<clipPath id="clip91_27">
			<rect id="icons8-youtube" width="30.000000" height="30.000000" fill="white" fill-opacity="0"/>
		</clipPath>
	</defs>
	<g clip-path="url(#clip91_27)">
		<path id="path" d="M26.93 8.69C26.7 7.38 25.56 6.41 24.23 6.11C22.26 5.69 18.6 5.39 14.63 5.39C10.68 5.39 6.96 5.69 4.98 6.11C3.66 6.41 2.51 7.31 2.28 8.69C2.03 10.2 1.79 12.29 1.79 15C1.79 17.7 2.03 19.79 2.33 21.29C2.58 22.61 3.71 23.58 5.03 23.88C7.13 24.29 10.73 24.59 14.7 24.59C18.66 24.59 22.26 24.29 24.36 23.88C25.68 23.58 26.81 22.68 27.06 21.29C27.3 19.79 27.6 17.63 27.66 15C27.53 12.29 27.23 10.2 26.93 8.69ZM11.4 19.2L11.4 10.79L18.71 15L11.4 19.2Z" fill="#1E1E1E" fill-opacity="0.750000" fill-rule="nonzero"/>
	</g>
</svg>
